<svg width="508" height="107" viewBox="0 0 508 107" fill="none" xmlns="http://www.w3.org/2000/svg">
<g clip-path="url(#clip0)">
<path fill-rule="evenodd" clip-rule="evenodd" d="M53.0937 0.0153809C82.4564 0.0153809 106.258 23.9686 106.258 53.5145C106.258 83.0622 82.4564 107.015 53.0937 107.015C23.7311 107.015 -0.0703125 83.0622 -0.0703125 53.5145C-0.0703125 23.9686 23.7311 0.0153809 53.0937 0.0153809ZM34.3298 38.6489C40.6748 35.1044 41.3267 40.9033 44.7928 49.7301C47.0061 55.3652 49.2194 60.8811 51.4664 66.5929C53.6457 72.1292 55.1478 80.4398 63.2892 78.0319C66.3984 77.1134 67.4802 74.7739 68.7183 71.6674C69.6174 69.4097 71.6357 65.1701 72.054 62.9718C65.6263 67.6221 64.1563 58.7901 61.8957 53.0424C59.6098 47.2301 57.371 41.6411 55.0987 35.8662C52.9363 30.3638 51.3107 21.8863 43.5059 23.5017C40.1414 24.1972 38.9289 26.5384 37.7164 29.5493C36.6633 32.1665 34.9564 35.9171 34.3298 38.6489ZM87.6109 23.3041C68.9757 23.3041 73.0667 21.0514 62.9031 46.6355C61.7298 49.5868 64.2798 53.6969 66.0902 58.4305C68.5826 64.9518 69.4192 61.8353 72.0014 60.6133C73.876 59.7273 73.0649 61.1179 74.1302 58.3285C75.6489 54.3494 77.1139 50.6398 78.6546 46.7241C80.0636 43.144 87.4819 25.6164 87.6109 23.3041ZM18.5751 78.2926C36.7784 80.046 34.8512 76.776 42.0767 58.3984C43.0778 55.8557 44.4169 54.15 43.4653 51.536C41.9582 47.3903 40.4157 42.7572 38.0078 39.2861L33.2547 41.6341C32.0218 42.5254 31.4815 45.2738 30.911 46.7276L18.5751 78.2926Z" fill="#219436"/>
<path fill-rule="evenodd" clip-rule="evenodd" d="M313.502 4.76766V76.8283C313.502 81.7262 321.729 82.5231 322.19 76.8368C323.119 65.3843 319.065 49.2009 326.263 39.8818C333.242 30.8463 352.987 31.7929 353.01 52.3563L352.971 76.4158C353.236 82.6196 362.109 82.3921 362.109 75.0814V53.2449C362.109 44.4336 360.529 39.4568 356.66 34.2712C345.412 19.1957 327.094 29.6612 326.956 29.6612C320.633 29.6612 322.182 21.1832 322.182 15.2493C322.182 9.03153 323.882 0.400024 317.842 0.400024C315.785 0.400024 313.502 2.53196 313.502 4.76766Z" fill="#219436"/>
<path fill-rule="evenodd" clip-rule="evenodd" d="M392.924 73.7711C380.075 73.7711 378.192 62.1005 385.621 57.6882C391.031 54.4749 400.045 55.3066 405.973 56.7086C409.705 57.5917 409.704 60.0543 407.688 64.6084C405.264 70.0834 398.946 73.7711 392.924 73.7711ZM376.866 32.2816C376.866 33.7347 378.397 37.0783 379.904 38.3958C381.566 38.2564 384.31 36.6548 386.155 35.9517C395.983 32.2094 408.981 34.6956 408.981 49.3142C399.469 47.0838 388.506 45.2021 379.544 51.136C367.465 59.1355 370.649 76.592 383.744 80.8249C391.454 83.3178 399.793 81.8126 405.81 77.1161C410.801 73.2212 408.166 80.7588 411.585 80.7588C420.146 80.7588 418.095 83.3152 418.095 51.9346C418.095 44.3865 417.024 38.9823 412.835 33.6441C406.38 25.4186 393.965 24.703 384.619 27.8555C382.65 28.5196 376.866 30.206 376.866 32.2816Z" fill="#219436"/>
<path fill-rule="evenodd" clip-rule="evenodd" d="M143.377 31.845C139.702 31.845 144.278 27.0409 136.433 27.0409C134.334 27.0409 132.961 28.4225 132.961 30.5348V76.8284C132.961 78.4116 133.326 79.2664 133.829 80.3223C136.793 81.0171 136.35 80.759 139.905 80.759C140.948 80.759 141.18 80.0513 142.075 79.4488L142.183 49.4228C144.844 28.6174 172.576 29.7467 172.465 50.6144C172.436 55.9742 171.692 76.9032 173.323 80.3223C175.244 80.773 181.568 81.8687 181.568 78.575V48.4406C181.568 42.2176 178.311 36.2907 175.375 32.8369C169.847 26.3329 158.475 24.1761 150.167 28.1965C148.837 28.8396 147.874 29.3421 146.848 30.0972C145.718 30.9289 145.244 31.845 143.377 31.845Z" fill="#219436"/>
<path fill-rule="evenodd" clip-rule="evenodd" d="M194.154 29.6613V57.1756C194.154 67.6546 198.456 75.2185 206.481 79.7089C212.926 83.3145 222.685 82.5071 228.622 78.3224C230.363 77.0955 230.28 76.3916 232.78 76.3916C235.284 76.3916 233.692 80.759 236.685 80.759C238.446 80.759 242.761 81.4275 242.761 78.575V30.0977C242.761 26.6656 239.37 27.0409 237.12 27.0409C232.348 27.0409 233.647 33.3882 233.647 39.7062C233.647 45.2373 233.621 50.7745 233.651 56.3047C233.682 62.1364 232.323 65.634 229.426 68.6497C222.798 75.5503 212.452 75.3688 207.098 68.6061C201.781 61.889 203.268 50.4734 203.268 40.1429C203.268 28.4034 204.714 27.0409 197.626 27.0409C196.04 27.0409 194.154 28.2459 194.154 29.6613Z" fill="#219436"/>
<path fill-rule="evenodd" clip-rule="evenodd" d="M470.174 31.845C465.47 31.845 470.513 27.0409 462.796 27.0409C461.21 27.0409 459.324 28.2459 459.324 29.6613V77.7018C459.324 81.5807 462.299 80.759 466.268 80.759C469.726 80.759 468.438 70.8208 468.438 67.2202C468.438 61.9794 468.465 56.7318 468.432 51.4922C468.397 45.9167 469.871 42.8037 472.389 39.7515C480.441 29.9916 498.83 33.6132 498.833 51.0461C498.833 56.291 498.817 61.538 498.817 66.7832C498.817 81.3311 497.165 80.759 505.761 80.759C507.164 80.759 507.931 79.1734 507.931 77.7018V50.1875C507.931 29.0585 487.072 20.5252 473.404 29.8548C472.579 30.4175 471.125 31.845 470.174 31.845Z" fill="#219436"/>
<path fill-rule="evenodd" clip-rule="evenodd" d="M255.781 53.2448C255.781 62.3598 258.554 68.9331 263.694 74.1064C271.403 81.8638 283.847 84.053 294.105 80.0181C306.336 75.2067 300.261 69.4034 297.445 69.4034C293.356 69.4034 291.362 73.7711 283.557 73.7711C264.578 73.7711 260.745 49.9749 269.548 40.8944C271.194 39.1968 272.559 37.6618 274.727 36.4969C285.879 30.5063 294.519 38.8326 297.011 38.8326C299.449 38.8326 301.351 36.9184 301.351 34.4652C301.351 28.4933 288.673 26.167 282.689 26.167C267.819 26.167 255.781 38.2813 255.781 53.2448Z" fill="#219436"/>
<path fill-rule="evenodd" clip-rule="evenodd" d="M433.719 31.4081V76.8285C433.719 81.9471 442.833 82.8767 442.833 75.0815V33.592C442.833 30.3078 441.814 27.992 439.05 27.3351C436.71 26.7803 433.719 28.4152 433.719 31.4081Z" fill="#219436"/>
<path fill-rule="evenodd" clip-rule="evenodd" d="M431.982 6.5144C431.982 15.9618 444.134 14.1105 444.134 7.8246V5.64093C444.134 -0.477744 431.982 -2.20217 431.982 6.5144Z" fill="#219436"/>
</g>
<defs>
<clipPath id="clip0">
<rect width="508" height="107" fill="white"/>
</clipPath>
</defs>
</svg>
